<?xml version="1.0" standalone="no"?>
<!DOCTYPE svg PUBLIC "-//W3C//DTD SVG 20010904//EN"
 "http://www.w3.org/TR/2001/REC-SVG-20010904/DTD/svg10.dtd">
<svg version="1.0" xmlns="http://www.w3.org/2000/svg"
 width="450.000000pt" height="800.000000pt" viewBox="0 0 450.000000 800.000000"
 preserveAspectRatio="xMidYMid meet">
<metadata>
Created by potrace 1.10, written by Peter Selinger 2001-2011
</metadata>
<g transform="translate(0.000000,800.000000) scale(0.100000,-0.100000)"
fill="#6fa8dc" stroke="none">
<path d="M508 7623 c7 -3 16 -2 19 1 4 3 -2 6 -13 5 -11 0 -14 -3 -6 -6z"/>
<path d="M388 7613 c7 -3 16 -2 19 1 4 3 -2 6 -13 5 -11 0 -14 -3 -6 -6z"/>
<path d="M5 7460 c-13 -20 8 -30 63 -30 31 0 74 -3 94 -6 36 -6 37 -8 53 -75
l17 -69 234 -182 c223 -173 234 -184 229 -210 l-7 -28 43 18 c41 18 44 18 109
-2 l67 -19 109 -294 109 -293 45 -15 45 -15 35 -150 c24 -103 39 -150 49 -150
10 0 111 -67 111 -73 0 -1 -7 -26 -14 -54 l-14 -53 144 0 144 0 23 46 c20 41
31 51 107 89 80 40 92 43 195 49 l111 7 20 -63 c25 -77 40 -82 121 -39 l57 31
128 -74 c105 -62 129 -72 136 -60 6 10 -24 105 -90 286 -54 149 -98 274 -98
278 0 4 19 12 42 19 27 9 81 46 156 110 l114 97 226 -81 225 -82 -2 -81 -2
-80 28 -6 c15 -3 55 -8 88 -11 94 -10 89 -5 130 -133 l37 -117 37 2 c20 2 223
12 451 23 228 11 452 22 497 26 l82 6 4 -164 3 -163 2 167 c1 92 -2 169 -7
172 -5 3 -173 -3 -372 -14 -200 -10 -436 -22 -524 -26 l-161 -7 -23 79 c-48
161 -37 147 -135 163 -47 7 -83 17 -80 22 3 5 -2 6 -10 3 -17 -7 -17 -6 -20
66 -1 25 -3 54 -4 65 -3 24 -40 42 -167 84 -95 30 -152 51 -248 90 -36 14 -65
14 -82 -1 -8 -7 -20 -18 -27 -23 -48 -38 -134 -111 -136 -118 -2 -4 -9 -4 -14
-1 -7 4 -8 2 -4 -4 4 -7 1 -12 -8 -12 -9 0 -16 -4 -16 -10 0 -5 -18 -15 -40
-21 -60 -18 -64 -28 -44 -101 10 -35 21 -65 24 -68 4 -3 26 -59 50 -125 23
-66 55 -155 71 -198 17 -43 29 -82 27 -87 -2 -4 -37 12 -78 36 -41 24 -96 55
-122 69 l-47 25 -58 -30 c-31 -17 -63 -30 -69 -30 -7 0 -20 24 -29 53 -10 28
-24 57 -33 64 -20 16 -216 6 -254 -13 -15 -8 -34 -14 -42 -14 -8 0 -16 -3 -18
-7 -2 -5 -24 -19 -49 -31 -34 -17 -52 -35 -68 -67 l-21 -43 -127 -1 -126 -2 6
28 c3 15 9 36 12 45 4 10 -2 25 -17 40 -13 13 -22 26 -20 31 1 4 -7 7 -18 7
-11 0 -20 4 -20 9 0 5 -10 11 -22 13 -24 3 -43 54 -73 192 -15 66 -15 80 -4
87 10 6 8 9 -8 9 -13 0 -23 4 -23 9 0 5 -17 16 -38 24 -23 9 -43 26 -51 43
-31 69 -161 427 -156 432 2 3 -1 12 -8 20 -6 8 -19 33 -28 56 -22 56 -70 80
-161 81 -46 0 -68 4 -68 12 0 7 -21 29 -46 50 -26 21 -60 50 -76 66 -16 15
-32 27 -37 27 -4 0 -17 8 -28 18 -12 9 -36 29 -54 44 -19 14 -45 36 -59 47
-14 11 -29 24 -35 29 -5 4 -28 20 -50 35 -22 15 -35 27 -30 28 6 0 0 4 -12 9
-24 10 -46 52 -57 111 -3 21 -13 43 -21 49 -8 7 -55 15 -105 18 -49 2 -87 9
-84 13 3 5 3 9 0 9 -3 0 -8 -4 -11 -10z"/>
<path d="M68 7403 c7 -3 16 -2 19 1 4 3 -2 6 -13 5 -11 0 -14 -3 -6 -6z"/>
<path d="M80 7273 c-70 -12 -103 -23 -64 -23 36 1 194 27 201 34 9 8 -46 4
-137 -11z"/>
<path d="M0 7173 c0 -7 84 -64 169 -113 146 -85 235 -139 281 -170 47 -31 59
-36 85 -28 17 4 44 10 60 12 36 5 90 25 84 31 -3 2 -41 -5 -84 -16 -66 -17
-83 -19 -100 -8 -11 7 -116 70 -233 141 -117 71 -224 135 -238 144 -13 9 -24
12 -24 7z"/>
<path d="M3208 7093 c7 -3 16 -2 19 1 4 3 -2 6 -13 5 -11 0 -14 -3 -6 -6z"/>
<path d="M3128 7083 c7 -3 16 -2 19 1 4 3 -2 6 -13 5 -11 0 -14 -3 -6 -6z"/>
<path d="M0 7012 c0 -4 107 -56 238 -116 130 -60 245 -113 255 -118 9 -5 17
-5 17 0 0 9 -21 20 -215 110 -207 95 -295 132 -295 124z"/>
<path d="M0 6774 c0 -57 3 -104 8 -104 4 0 6 43 4 96 l-3 97 23 -7 c64 -17 73
-19 68 -14 -3 3 -26 12 -52 21 l-48 16 0 -105z"/>
<path d="M641 6851 c-13 -10 -21 -24 -18 -32 4 -10 6 -9 6 3 1 10 12 20 26 24
14 3 25 10 25 15 0 14 -13 10 -39 -10z"/>
<path d="M2091 6834 c0 -11 3 -14 6 -6 3 7 2 16 -1 19 -3 4 -6 -2 -5 -13z"/>
<path d="M106 6798 c-14 -119 -16 -148 -8 -148 5 0 13 33 16 73 4 39 10 82 13
95 3 12 0 22 -5 22 -6 0 -13 -19 -16 -42z"/>
<path d="M718 6832 c-13 -2 -18 -12 -17 -35 2 -30 2 -31 6 -4 7 43 19 32 16
-15 -2 -43 -2 -42 7 7 10 56 11 53 -12 47z"/>
<path d="M773 6833 c9 -2 25 -2 35 0 9 3 1 5 -18 5 -19 0 -27 -2 -17 -5z"/>
<path d="M150 6826 c0 -7 170 -60 175 -54 3 3 -28 15 -69 26 -41 12 -82 25
-90 28 -9 3 -16 4 -16 0z"/>
<path d="M601 6743 c-12 -64 -35 -181 -51 -258 -14 -64 -27 -433 -29 -794 -1
-52 -3 -92 -6 -90 -5 6 -14 87 -20 184 -2 39 -6 77 -9 85 -2 8 -7 42 -10 75
-7 72 -23 225 -37 355 -6 52 -10 109 -9 125 0 17 -4 55 -10 85 -5 30 -11 65
-12 76 -1 15 -7 20 -17 16 -11 -4 -13 2 -9 29 11 65 34 106 63 113 18 5 31 3
35 -4 5 -8 9 -7 13 4 5 13 -1 16 -31 16 -20 0 -42 -4 -47 -8 -6 -4 -21 -38
-33 -77 -13 -38 -26 -76 -29 -83 -4 -9 2 -11 20 -7 24 6 25 4 31 -52 18 -170
106 -1070 106 -1085 0 -16 9 -18 78 -16 l77 1 -65 6 -65 6 3 405 c3 488 4 504
48 748 20 107 33 196 31 198 -3 3 -10 -21 -16 -53z"/>
<path d="M883 6740 c0 -25 2 -35 4 -22 2 12 2 32 0 45 -2 12 -4 2 -4 -23z"/>
<path d="M350 6760 c8 -5 22 -9 30 -9 10 0 8 3 -5 9 -27 12 -43 12 -25 0z"/>
<path d="M692 6672 c-2 -73 -9 -171 -18 -242 -3 -25 -3 -42 0 -39 5 4 46 299
46 328 0 5 -6 11 -13 14 -11 4 -14 -10 -15 -61z"/>
<path d="M931 6654 c1 -16 5 -40 9 -54 6 -17 7 -9 3 25 -6 56 -14 74 -12 29z"/>
<path d="M48 6663 c6 -2 18 -2 25 0 6 3 1 5 -13 5 -14 0 -19 -2 -12 -5z"/>
<path d="M155 6635 c22 -7 56 -15 75 -18 19 -4 8 2 -25 13 -33 11 -67 19 -75
19 -8 -1 3 -7 25 -14z"/>
<path d="M891 6608 c-1 -27 3 -48 7 -48 4 0 6 17 4 38 -5 58 -10 62 -11 10z"/>
<path d="M60 6620 c14 -4 36 -8 50 -8 22 0 22 1 -5 8 -16 4 -39 8 -50 8 -16 0
-15 -2 5 -8z"/>
<path d="M185 6597 c46 -12 65 -13 54 -3 -2 2 -26 7 -54 10 l-50 6 50 -13z"/>
<path d="M278 6603 c7 -3 16 -2 19 1 4 3 -2 6 -13 5 -11 0 -14 -3 -6 -6z"/>
<path d="M258 6583 c6 -2 18 -2 25 0 6 3 1 5 -13 5 -14 0 -19 -2 -12 -5z"/>
<path d="M952 6535 c0 -16 2 -22 5 -12 2 9 2 23 0 30 -3 6 -5 -1 -5 -18z"/>
<path d="M903 6480 c0 -30 2 -43 4 -27 2 15 2 39 0 55 -2 15 -4 2 -4 -28z"/>
<path d="M962 6480 c0 -14 4 -36 8 -50 6 -20 8 -21 8 -5 0 11 -4 34 -8 50 -7
27 -8 27 -8 5z"/>
<path d="M911 6360 c0 -25 3 -51 8 -59 5 -8 7 5 4 35 -6 68 -11 77 -12 24z"/>
<path d="M123 6373 c154 -4 164 -18 31 -46 -83 -16 -91 -17 -117 -1 -38 22
-45 11 -10 -14 26 -19 33 -19 101 -7 39 6 72 10 72 7 0 -4 5 -1 12 6 14 14 32
16 24 3 -4 -5 -3 -17 1 -28 6 -13 9 -6 14 27 4 25 5 48 2 53 -2 4 -61 6 -131
5 l-127 -2 128 -3z"/>
<path d="M981 6365 c0 -11 4 -38 9 -60 10 -45 7 -51 -32 -60 -24 -6 -28 -4
-29 16 -1 20 -2 19 -8 -6 -4 -16 -6 -32 -5 -34 2 -2 25 2 53 9 39 9 48 15 44
28 -4 8 -12 41 -19 71 -6 31 -12 47 -13 36z"/>
<path d="M226 6173 c-4 -54 -8 -115 -10 -135 -2 -21 0 -38 4 -38 8 0 25 259
17 266 -3 3 -8 -39 -11 -93z"/>
<path d="M1045 6260 c-25 -11 1 -11 35 0 20 6 21 8 5 8 -11 0 -29 -3 -40 -8z"/>
<path d="M1278 6243 c6 -2 18 -2 25 0 6 3 1 5 -13 5 -14 0 -19 -2 -12 -5z"/>
<path d="M981 6204 c-170 -24 -231 -38 -126 -28 32 3 62 7 65 9 3 1 34 6 70 9
85 9 193 26 199 32 8 7 -39 2 -208 -22z"/>
<path d="M840 6210 c-20 -6 -21 -8 -5 -8 11 0 31 4 45 8 20 6 21 8 5 8 -11 0
-31 -4 -45 -8z"/>
<path d="M3060 6179 c0 -5 5 -7 10 -4 6 3 10 8 10 11 0 2 -4 4 -10 4 -5 0 -10
-5 -10 -11z"/>
<path d="M775 6145 c24 -152 44 -253 42 -213 -1 25 1 44 6 41 11 -7 9 11 -14
105 -23 93 -44 135 -34 67z"/>
<path d="M2980 6150 c-9 -6 -10 -10 -3 -10 6 0 15 5 18 10 8 12 4 12 -15 0z"/>
<path d="M2741 6114 c0 -11 3 -14 6 -6 3 7 2 16 -1 19 -3 4 -6 -2 -5 -13z"/>
<path d="M2903 6070 c0 -30 2 -43 4 -27 2 15 2 39 0 55 -2 15 -4 2 -4 -28z"/>
<path d="M3062 6070 c0 -19 2 -27 5 -17 2 9 2 25 0 35 -3 9 -5 1 -5 -18z"/>
<path d="M4 5920 c0 -63 1 -89 3 -57 2 31 2 83 0 115 -2 31 -3 5 -3 -58z"/>
<path d="M210 5966 c0 -32 -7 -36 -79 -37 -88 -2 -75 -19 14 -19 l75 0 0 40
c0 22 -2 40 -5 40 -3 0 -5 -11 -5 -24z"/>
<path d="M831 5950 c0 -8 4 -24 9 -35 5 -13 9 -14 9 -5 0 8 -4 24 -9 35 -5 13
-9 14 -9 5z"/>
<path d="M1155 5918 c-44 -11 -96 -24 -115 -29 -19 -5 -57 -30 -85 -56 -29
-27 -37 -37 -18 -24 17 11 34 21 37 21 8 0 8 -73 1 -93 -5 -12 -16 -12 -68 -3
-57 10 -62 13 -68 41 l-7 30 -1 -32 c-1 -30 -4 -32 -70 -52 -38 -12 -74 -21
-79 -21 -6 0 -13 -4 -17 -9 -3 -6 27 0 67 12 79 23 123 26 210 13 l57 -8 -2
78 -2 79 125 31 c138 34 166 43 135 42 -11 0 -56 -9 -100 -20z"/>
<path d="M3378 5914 c-16 -8 -28 -16 -28 -18 0 -9 40 7 51 20 14 17 11 17 -23
-2z"/>
<path d="M2982 5900 c0 -14 2 -19 5 -12 2 6 2 18 0 25 -3 6 -5 1 -5 -13z"/>
<path d="M70 5891 c8 -5 32 -12 53 -15 21 -4 40 -12 42 -19 10 -32 11 -227 1
-228 -6 -1 -40 -1 -76 -1 l-65 0 -5 88 -5 89 -5 -98 -5 -97 94 0 94 0 -6 108
c-4 59 -7 119 -7 134 0 24 -5 27 -50 37 -61 13 -81 14 -60 2z"/>
<path d="M205 5890 c-3 -5 -1 -10 4 -10 6 0 11 5 11 10 0 6 -2 10 -4 10 -3 0
-8 -4 -11 -10z"/>
<path d="M275 5830 c3 -41 8 -148 11 -237 l7 -163 30 0 c25 0 28 3 24 23 -3
12 -17 94 -31 182 -15 88 -30 185 -36 215 -9 54 -9 54 -5 -20z m54 -342 c1
-15 -3 -29 -8 -32 -13 -8 -21 31 -20 99 l1 60 13 -50 c7 -27 14 -62 14 -77z"/>
<path d="M852 5875 c0 -11 3 -29 8 -40 11 -25 11 1 0 35 -6 20 -8 21 -8 5z"/>
<path d="M2911 5874 c0 -11 3 -14 6 -6 3 7 2 16 -1 19 -3 4 -6 -2 -5 -13z"/>
<path d="M3416 5853 c-6 -14 -5 -15 5 -6 7 7 10 15 7 18 -3 3 -9 -2 -12 -12z"/>
<path d="M822 5840 c0 -14 2 -19 5 -12 2 6 2 18 0 25 -3 6 -5 1 -5 -13z"/>
<path d="M1230 5853 l-35 -4 9 -100 c5 -55 7 -101 5 -103 -2 -2 -14 -7 -26
-10 -22 -7 -23 -5 -22 41 0 37 2 43 9 28 7 -14 9 7 7 62 l-2 83 -50 -1 c-27 0
-68 -4 -90 -9 -30 -7 -21 -8 39 -4 l78 6 -4 -116 c-2 -64 -1 -116 3 -116 3 0
30 5 60 11 l54 11 0 106 0 107 60 6 60 6 -60 0 c-33 0 -76 -2 -95 -4z m18
-110 c-2 -66 -7 -98 -15 -101 -9 -2 -13 10 -13 45 0 26 -3 71 -6 98 -6 47 -5
51 15 52 21 2 22 -1 19 -94z"/>
<path d="M3243 5838 c-13 -6 -23 -15 -23 -20 0 -7 31 8 59 29 10 7 -16 1 -36
-9z"/>
<path d="M2981 5804 c0 -11 3 -14 6 -6 3 7 2 16 -1 19 -3 4 -6 -2 -5 -13z"/>
<path d="M3453 5813 c9 -2 25 -2 35 0 9 3 1 5 -18 5 -19 0 -27 -2 -17 -5z"/>
<path d="M3598 5813 c6 -2 18 -2 25 0 6 3 1 5 -13 5 -14 0 -19 -2 -12 -5z"/>
<path d="M3698 5813 c12 -2 32 -2 45 0 12 2 2 4 -23 4 -25 0 -35 -2 -22 -4z"/>
<path d="M3833 5813 c15 -2 37 -2 50 0 12 2 0 4 -28 4 -27 0 -38 -2 -22 -4z"/>
<path d="M4020 5810 c-13 -8 -12 -10 3 -10 9 0 17 5 17 10 0 12 -1 12 -20 0z"/>
<path d="M4131 5805 c9 -8 110 -11 115 -3 3 4 -23 8 -57 8 -34 0 -60 -2 -58
-5z"/>
<path d="M3160 5790 c-13 -9 -13 -10 0 -10 8 0 22 5 30 10 13 9 13 10 0 10 -8
0 -22 -5 -30 -10z"/>
<path d="M3957 5789 c7 -7 15 -10 18 -7 3 3 -2 9 -12 12 -14 6 -15 5 -6 -5z"/>
<path d="M1698 5753 c7 -3 16 -2 19 1 4 3 -2 6 -13 5 -11 0 -14 -3 -6 -6z"/>
<path d="M1366 5735 c-3 -9 -6 -26 -5 -38 1 -16 4 -12 10 12 10 34 6 55 -5 26z"/>
<path d="M1808 5743 c7 -3 16 -2 19 1 4 3 -2 6 -13 5 -11 0 -14 -3 -6 -6z"/>
<path d="M1986 5735 c4 -8 11 -15 16 -15 6 0 5 6 -2 15 -7 8 -14 15 -16 15 -2
0 -1 -7 2 -15z"/>
<path d="M2035 5730 c-17 -7 -14 -9 13 -9 20 -1 31 3 27 9 -7 12 -13 12 -40 0z"/>
<path d="M2110 5720 c0 -5 4 -10 9 -10 6 0 13 5 16 10 3 6 -1 10 -9 10 -9 0
-16 -4 -16 -10z"/>
<path d="M2150 5716 c0 -2 7 -6 15 -10 8 -3 15 -1 15 4 0 6 -7 10 -15 10 -8 0
-15 -2 -15 -4z"/>
<path d="M905 5684 c-11 -2 -68 -6 -126 -9 -58 -4 -111 -10 -118 -14 -9 -6 -9
-32 1 -119 l12 -112 478 0 479 0 -42 55 c-46 62 -64 69 -24 10 14 -21 25 -41
25 -45 0 -3 -20 -7 -44 -9 l-43 -2 -22 52 c-11 28 -21 58 -21 65 0 12 -44 14
-240 14 -132 0 -240 -4 -240 -8 0 -8 80 -11 357 -12 119 0 114 2 128 -50 1 -3
5 -13 10 -23 4 -10 6 -20 3 -22 -2 -3 -173 -5 -379 -5 l-374 -1 -26 68 c-15
37 -30 82 -33 99 l-7 31 68 7 c37 3 106 8 153 11 47 3 100 8 119 11 32 5 33 4
27 -20 -3 -13 -2 -28 4 -31 5 -3 10 0 10 7 0 7 3 23 6 36 6 21 4 22 -57 21
-35 -1 -73 -3 -84 -5z"/>
<path d="M1170 5660 c0 -19 3 -21 12 -12 9 9 9 15 0 24 -9 9 -12 7 -12 -12z"/>
<path d="M1326 5659 c-57 -14 -59 -23 -4 -15 43 6 55 3 134 -38 l86 -45 172 6
c147 5 203 2 401 -21 309 -36 290 -31 256 -75 -18 -23 -24 -24 -317 -42 -164
-10 -316 -18 -336 -19 -29 0 -38 -4 -38 -17 0 -15 -42 -16 -552 -9 -304 4
-681 11 -838 15 -157 5 -287 7 -289 5 -11 -10 18 -12 204 -18 186 -5 276 -8
650 -21 77 -3 294 -5 483 -6 303 -2 344 0 355 14 9 13 38 17 132 21 66 2 138
7 160 9 76 11 474 29 490 24 8 -4 15 -2 15 3 0 6 -25 10 -56 10 -31 0 -54 3
-52 8 2 4 10 20 18 36 13 26 12 29 -5 42 -10 8 -31 15 -47 15 -26 1 -38 3 -55
9 -5 1 -12 2 -17 1 -14 -3 -301 31 -306 36 -7 7 1357 -4 1410 -11 25 -4 68
-11 95 -17 28 -5 163 -10 302 -9 162 0 254 -3 258 -10 4 -6 11 -8 16 -4 5 3
28 3 50 -1 l39 -7 -5 -56 c-3 -32 -8 -75 -12 -97 -3 -22 -7 -53 -8 -70 -6 -71
-18 -115 -34 -119 -9 -2 -51 -7 -93 -11 -43 -4 -78 -10 -78 -14 0 -4 33 -3 73
1 39 5 84 7 100 5 15 -2 28 -1 28 2 1 3 3 17 4 31 2 14 13 97 25 184 14 111
18 162 10 170 -6 6 -135 13 -348 17 -214 5 -353 12 -382 20 -34 9 -286 13
-1000 16 -857 4 -957 6 -972 20 -10 9 -16 18 -13 21 10 10 1605 2 1631 -9 37
-13 42 -4 7 14 -24 13 -149 15 -868 15 -497 0 -856 -3 -879 -9z"/>
<path d="M4170 5614 c0 -34 4 -53 10 -49 6 3 10 22 10 41 0 19 5 34 10 34 6 0
10 -5 10 -11 0 -5 4 -8 8 -5 5 3 69 -26 142 -64 74 -38 136 -67 139 -64 3 2 0
8 -5 13 -14 13 -303 161 -314 161 -6 0 -10 -25 -10 -56z"/>
<path d="M1000 5594 c-46 -17 -14 -17 70 0 l65 14 -50 0 c-27 0 -66 -6 -85
-14z"/>
<path d="M180 5585 c-7 -9 -10 -18 -7 -21 3 -3 10 4 17 15 13 25 8 27 -10 6z"/>
<path d="M73 5553 c-95 -5 -95 -18 0 -18 l72 0 0 -40 0 -40 -72 -3 c-100 -4
-92 -22 10 -22 l82 0 -3 65 c-2 36 -7 64 -10 63 -4 -1 -40 -4 -79 -5z"/>
<path d="M2283 5493 c9 -2 25 -2 35 0 9 3 1 5 -18 5 -19 0 -27 -2 -17 -5z"/>
<path d="M2083 5476 c-50 -6 -94 -14 -97 -17 -5 -5 211 15 259 24 45 9 -76 3
-162 -7z"/>
<path d="M1918 5453 c12 -2 30 -2 40 0 9 3 -1 5 -23 4 -22 0 -30 -2 -17 -4z"/>
<path d="M1828 5443 c12 -2 30 -2 40 0 9 3 -1 5 -23 4 -22 0 -30 -2 -17 -4z"/>
<path d="M203 5433 c15 -2 39 -2 55 0 15 2 2 4 -28 4 -30 0 -43 -2 -27 -4z"/>
<path d="M393 5433 c20 -2 54 -2 75 0 20 2 3 4 -38 4 -41 0 -58 -2 -37 -4z"/>
<path d="M1733 5433 c9 -2 25 -2 35 0 9 3 1 5 -18 5 -19 0 -27 -2 -17 -5z"/>
<path d="M2508 5421 c23 -14 -7 -19 -202 -31 -234 -15 -220 -14 -226 -21 -3
-4 -44 -9 -93 -11 -48 -3 -93 -10 -100 -16 -14 -12 -191 -28 -256 -24 -21 2
-22 4 -10 19 13 15 12 15 -6 5 -11 -6 -29 -18 -40 -27 -19 -15 -10 -16 120
-10 77 4 176 10 220 15 78 7 78 7 25 10 -66 4 -60 4 230 30 124 12 282 27 352
35 70 8 144 16 165 17 27 1 18 3 -27 8 -94 11 -168 11 -152 1z"/>
<path d="M135 5340 c-19 -8 -19 -9 3 -9 12 -1 22 4 22 9 0 6 -1 10 -2 9 -2 0
-12 -4 -23 -9z"/>
<path d="M248 5333 c17 -2 47 -2 65 0 17 2 3 4 -33 4 -36 0 -50 -2 -32 -4z"/>
<path d="M423 5333 c9 -2 23 -2 30 0 6 3 -1 5 -18 5 -16 0 -22 -2 -12 -5z"/>
<path d="M508 5333 c6 -2 18 -2 25 0 6 3 1 5 -13 5 -14 0 -19 -2 -12 -5z"/>
<path d="M607 5328 c2 -5 24 -8 49 -8 24 0 44 3 44 8 0 4 -22 7 -49 7 -27 0
-47 -3 -44 -7z"/>
<path d="M773 5329 c-10 -3 27 -7 82 -7 108 0 110 5 3 10 -36 2 -75 1 -85 -3z"/>
<path d="M718 5323 c6 -2 18 -2 25 0 6 3 1 5 -13 5 -14 0 -19 -2 -12 -5z"/>
<path d="M1085 5320 c-3 -5 1 -10 10 -10 9 0 13 5 10 10 -3 6 -8 10 -10 10 -2
0 -7 -4 -10 -10z"/>
<path d="M1120 5318 c0 -4 42 -7 93 -7 101 2 93 6 -20 11 -40 2 -73 0 -73 -4z"/>
<path d="M1343 5313 c15 -2 37 -2 50 0 12 2 0 4 -28 4 -27 0 -38 -2 -22 -4z"/>
<path d="M1420 5316 c0 -2 11 -6 25 -8 14 -3 25 -1 25 3 0 5 -11 9 -25 9 -14
0 -25 -2 -25 -4z"/>
<path d="M1508 5303 c7 -3 16 -2 19 1 4 3 -2 6 -13 5 -11 0 -14 -3 -6 -6z"/>
<path d="M1537 5284 c-3 -3 -43 -16 -90 -28 -76 -19 -83 -23 -76 -41 6 -17 8
-17 8 -2 1 13 10 17 41 17 22 0 40 4 40 10 0 5 18 14 40 20 21 6 42 15 45 20
7 11 2 13 -8 4z"/>
<path d="M3378 5273 c6 -2 18 -2 25 0 6 3 1 5 -13 5 -14 0 -19 -2 -12 -5z"/>
<path d="M2948 5263 c6 -2 18 -2 25 0 6 3 1 5 -13 5 -14 0 -19 -2 -12 -5z"/>
<path d="M1833 5243 c26 -2 67 -2 90 0 23 2 2 3 -48 3 -49 0 -68 -1 -42 -3z"/>
<path d="M2 5220 c0 -14 2 -19 5 -12 2 6 2 18 0 25 -3 6 -5 1 -5 -13z"/>
<path d="M1380 5180 c1 -8 7 -26 15 -40 l15 -25 -6 30 c-7 33 -24 58 -24 35z"/>
<path d="M3921 5126 c2 -3 34 -6 69 -7 36 -1 72 -4 80 -6 16 -4 25 -43 10 -43
-4 0 -6 -9 -3 -20 4 -15 0 -20 -13 -21 -18 0 -17 -1 1 -8 19 -8 18 -9 -5 -13
-24 -5 -24 -5 -2 -7 16 -1 21 -5 16 -13 -5 -7 -9 -19 -9 -28 -1 -8 -5 -36 -9
-61 -8 -53 8 -75 59 -81 27 -3 30 -6 28 -38 -2 -33 -1 -32 8 8 8 33 14 42 27
38 9 -3 86 -8 170 -12 109 -4 152 -3 152 5 0 7 -32 11 -92 12 -51 1 -97 2
-103 4 -5 1 -61 3 -123 3 l-113 2 5 33 c3 17 8 53 11 78 l6 47 204 -6 c139 -3
205 -2 205 5 0 6 -8 20 -17 32 -17 20 -30 22 -179 28 -109 4 -167 2 -180 -5
-15 -9 -6 -11 47 -12 127 0 309 -13 309 -22 0 -4 -83 -8 -185 -8 l-185 0 -6
25 c-3 14 -3 41 0 60 l7 35 -97 0 c-54 0 -95 -2 -93 -4z"/>
<path d="M1360 5090 c-18 -12 -2 -12 25 0 13 6 15 9 5 9 -8 0 -22 -4 -30 -9z"/>
<path d="M1275 5070 c-27 -5 -68 -12 -90 -17 l-40 -9 -8 -83 -7 -83 -118 -164
c-127 -177 -122 -173 -227 -177 -27 -1 -64 2 -82 6 -28 7 -31 6 -26 -11 7 -27
-7 -30 -289 -43 -136 -7 -248 -15 -248 -18 0 -15 482 9 526 26 11 3 22 11 26
17 4 6 25 9 48 7 78 -5 142 9 172 39 15 16 28 25 28 22 1 -4 7 7 14 23 8 17
22 39 32 51 11 11 24 27 29 36 6 9 36 54 68 100 51 74 59 92 63 144 9 103 6
99 77 112 36 7 79 12 96 12 19 0 30 4 26 10 -3 6 -9 9 -13 9 -4 -1 -29 -5 -57
-9z"/>
<path d="M1798 5063 c6 -2 18 -2 25 0 6 3 1 5 -13 5 -14 0 -19 -2 -12 -5z"/>
<path d="M1853 5063 c9 -2 25 -2 35 0 9 3 1 5 -18 5 -19 0 -27 -2 -17 -5z"/>
<path d="M1933 5063 c9 -2 23 -2 30 0 6 3 -1 5 -18 5 -16 0 -22 -2 -12 -5z"/>
<path d="M2208 5063 c6 -2 18 -2 25 0 6 3 1 5 -13 5 -14 0 -19 -2 -12 -5z"/>
<path d="M2438 5063 c7 -3 16 -2 19 1 4 3 -2 6 -13 5 -11 0 -14 -3 -6 -6z"/>
<path d="M2833 5063 c82 -2 212 -2 290 0 78 1 12 3 -148 3 -159 0 -223 -2
-142 -3z"/>
<path d="M3668 5063 c7 -3 16 -2 19 1 4 3 -2 6 -13 5 -11 0 -14 -3 -6 -6z"/>
<path d="M3758 5063 c7 -3 16 -2 19 1 4 3 -2 6 -13 5 -11 0 -14 -3 -6 -6z"/>
<path d="M3807 5062 c16 -10 4 -28 -22 -34 -14 -3 -8 -8 24 -17 46 -13 191 -6
191 9 0 5 -8 6 -19 3 -10 -2 -26 3 -36 13 -17 17 -17 18 1 25 11 4 -19 8 -66
8 -47 0 -80 -3 -73 -7z m117 -27 c4 -12 -5 -15 -49 -15 -51 0 -65 7 -48 23 13
14 91 7 97 -8z"/>
<path d="M4010 5020 c0 -5 4 -10 9 -10 6 0 13 5 16 10 3 6 -1 10 -9 10 -9 0
-16 -4 -16 -10z"/>
<path d="M4191 4900 c12 -8 247 -14 239 -7 -3 3 -60 7 -128 9 -68 3 -118 2
-111 -2z"/>
<path d="M30 4890 c-9 -6 -10 -10 -3 -10 6 0 15 5 18 10 8 12 4 12 -15 0z"/>
<path d="M4161 4884 c0 -11 3 -14 6 -6 3 7 2 16 -1 19 -3 4 -6 -2 -5 -13z"/>
<path d="M90 4886 c0 -2 14 -6 30 -8 17 -3 30 -1 30 4 0 4 -13 8 -30 8 -16 0
-30 -2 -30 -4z"/>
<path d="M4463 4883 c9 -2 23 -2 30 0 6 3 -1 5 -18 5 -16 0 -22 -2 -12 -5z"/>
<path d="M178 4873 c6 -2 18 -2 25 0 6 3 1 5 -13 5 -14 0 -19 -2 -12 -5z"/>
<path d="M168 4723 c6 -2 18 -2 25 0 6 3 1 5 -13 5 -14 0 -19 -2 -12 -5z"/>
<path d="M113 4713 c9 -2 23 -2 30 0 6 3 -1 5 -18 5 -16 0 -22 -2 -12 -5z"/>
<path d="M7 4703 c7 -2 19 -2 26 0 6 3 1 5 -13 5 -14 0 -19 -2 -13 -5z"/>
<path d="M168 4693 c7 -3 16 -2 19 1 4 3 -2 6 -13 5 -11 0 -14 -3 -6 -6z"/>
<path d="M83 4683 c9 -2 23 -2 30 0 6 3 -1 5 -18 5 -16 0 -22 -2 -12 -5z"/>
<path d="M398 4623 c12 -2 30 -2 40 0 9 3 -1 5 -23 4 -22 0 -30 -2 -17 -4z"/>
<path d="M303 4613 c9 -2 23 -2 30 0 6 3 -1 5 -18 5 -16 0 -22 -2 -12 -5z"/>
<path d="M233 4603 c9 -2 23 -2 30 0 6 3 -1 5 -18 5 -16 0 -22 -2 -12 -5z"/>
<path d="M163 4593 c9 -2 25 -2 35 0 9 3 1 5 -18 5 -19 0 -27 -2 -17 -5z"/>
<path d="M380 4580 c-36 -10 -58 -18 -50 -19 18 -1 120 26 128 33 8 9 -6 6
-78 -14z"/>
<path d="M98 4583 c7 -3 16 -2 19 1 4 3 -2 6 -13 5 -11 0 -14 -3 -6 -6z"/>
<path d="M38 4573 c6 -2 18 -2 25 0 6 3 1 5 -13 5 -14 0 -19 -2 -12 -5z"/>
<path d="M673 4573 c9 -2 23 -2 30 0 6 3 -1 5 -18 5 -16 0 -22 -2 -12 -5z"/>
<path d="M778 4563 c7 -3 16 -2 19 1 4 3 -2 6 -13 5 -11 0 -14 -3 -6 -6z"/>
<path d="M235 4545 c-22 -7 -31 -13 -20 -13 11 0 38 5 60 13 22 7 31 13 20 13
-11 0 -38 -5 -60 -13z"/>
<path d="M412 4538 c-35 -11 -61 -22 -58 -25 2 -3 33 4 68 15 35 12 77 23 93
25 28 4 27 4 -5 4 -19 1 -63 -8 -98 -19z"/>
<path d="M618 4533 c6 -2 18 -2 25 0 6 3 1 5 -13 5 -14 0 -19 -2 -12 -5z"/>
<path d="M90 4509 c-36 -10 -49 -16 -29 -14 41 6 131 33 109 33 -8 0 -44 -8
-80 -19z"/>
<path d="M3 4463 c7 -7 118 -5 126 2 2 3 -26 5 -64 5 -38 0 -65 -3 -62 -7z"/>
</g>
</svg>
